<?xml version="1.0" standalone="no"?>
<!DOCTYPE svg PUBLIC "-//W3C//DTD SVG 20010904//EN"
 "http://www.w3.org/TR/2001/REC-SVG-20010904/DTD/svg10.dtd">
<svg version="1.0" xmlns="http://www.w3.org/2000/svg"
 width="200.000000pt" height="150.000000pt" viewBox="0 0 200.000000 150.000000"
 preserveAspectRatio="xMidYMid meet">

<g transform="translate(0.000000,150.000000) scale(0.100000,-0.100000)"
fill="#000000" stroke="none">
<path d="M0 750 l0 -750 1000 0 1000 0 0 750 0 750 -1000 0 -1000 0 0 -750z
m857 370 c24 -10 51 -32 61 -49 l18 -30 18 34 c13 24 32 39 63 51 53 20 70 11
19 -10 -40 -17 -76 -67 -76 -107 0 -44 30 -90 69 -106 20 -9 85 -24 145 -35
67 -11 120 -27 137 -39 l27 -19 12 34 c6 19 24 49 39 67 37 42 50 87 41 138
-8 45 -24 68 -55 82 -17 8 -16 9 5 4 14 -4 30 -7 37 -7 7 -1 11 -4 10 -7 -1
-3 4 -16 11 -28 7 -12 13 -46 15 -75 l2 -53 70 6 c38 3 79 9 90 13 13 6 10 0
-10 -17 -16 -14 -34 -23 -39 -19 -5 3 -7 -2 -3 -11 3 -9 2 -27 -3 -39 l-9 -23
0 22 c-1 31 -29 55 -55 47 -48 -15 -96 -71 -96 -111 0 -42 24 -70 81 -95 l57
-25 13 23 c8 17 25 26 49 30 54 9 67 19 51 38 -8 9 -11 16 -8 16 3 0 13 3 23
7 15 5 16 1 10 -39 -6 -42 -5 -46 16 -52 35 -9 104 -7 133 4 16 6 24 6 20 0
-12 -19 -89 -32 -157 -25 -86 9 -96 -6 -49 -68 54 -73 72 -123 81 -224 6 -67
13 -100 26 -114 9 -10 15 -21 13 -24 -7 -6 -430 -8 -436 -1 -15 15 9 36 40 36
19 0 40 7 47 16 8 8 34 27 59 41 69 39 91 66 91 110 0 47 -21 79 -64 97 -18 7
-56 37 -84 65 -28 28 -56 51 -61 51 -6 0 -35 16 -66 35 -65 42 -93 53 -160 66
-64 12 -106 0 -149 -43 -61 -59 -107 -88 -140 -87 -22 1 -25 3 -11 6 29 8 75
42 74 56 0 8 -2 8 -5 1 -2 -6 -17 -9 -32 -6 -17 2 -68 -11 -128 -34 -104 -40
-182 -49 -219 -26 -17 11 -11 12 35 6 52 -5 61 -3 143 40 48 24 108 48 134 52
60 8 112 29 134 53 17 18 15 19 -24 31 -23 7 -69 14 -102 16 -33 3 -92 12
-131 21 -71 16 -73 16 -135 -7 -35 -12 -95 -38 -134 -58 -61 -30 -83 -36 -175
-43 -58 -4 -113 -11 -122 -14 -10 -4 -18 -4 -18 -1 0 4 10 11 23 16 l22 9 -24
0 c-13 1 -22 4 -18 7 3 3 47 7 99 10 88 3 98 6 194 54 56 27 107 50 113 50 6
0 11 5 11 12 0 8 -29 9 -107 5 -127 -8 -156 -14 -149 -33 3 -8 -1 -14 -8 -14
-8 0 -16 6 -19 14 -7 16 11 36 32 36 10 0 6 5 -9 13 -14 7 -36 35 -50 62 -19
39 -35 55 -70 72 -50 25 -29 31 25 9 26 -11 41 -28 57 -63 13 -26 28 -52 33
-56 6 -4 42 -5 80 -1 39 3 97 6 131 6 l61 -1 -1 41 c-1 23 4 43 11 45 7 3 9
-3 6 -16 -7 -29 22 -70 61 -86 77 -32 316 -43 316 -15 0 5 -12 16 -27 24 -21
12 -24 15 -10 16 16 0 18 5 12 33 -10 47 -36 79 -86 104 -54 27 -30 30 28 3z"/>
</g>
</svg>
